<mxfile host="app.diagrams.net" agent="Mozilla/5.0 (Macintosh; Intel Mac OS X 10_15_7) AppleWebKit/537.36 (KHTML, like Gecko) Chrome/127.0.0.0 Safari/537.36" version="24.7.7">
  <diagram name="第 1 页" id="l8nAImhA_V3-tAAv8bX_">
    <mxGraphModel dx="2714" dy="560" grid="1" gridSize="10" guides="1" tooltips="1" connect="1" arrows="1" fold="1" page="1" pageScale="1" pageWidth="827" pageHeight="1169" math="0" shadow="0">
      <root>
        <mxCell id="0" />
        <mxCell id="1" parent="0" />
        <mxCell id="PQxb19GPP4Mwg28GRMJL-1" value="Department" style="rounded=0;whiteSpace=wrap;html=1;" parent="1" vertex="1">
          <mxGeometry x="30" y="505" width="120" height="60" as="geometry" />
        </mxCell>
        <mxCell id="PQxb19GPP4Mwg28GRMJL-5" value="&lt;u&gt;name&lt;/u&gt;" style="ellipse;whiteSpace=wrap;html=1;" parent="1" vertex="1">
          <mxGeometry x="-57.5" y="420" width="80" height="50" as="geometry" />
        </mxCell>
        <mxCell id="PQxb19GPP4Mwg28GRMJL-6" value="" style="endArrow=none;html=1;rounded=0;entryX=0.25;entryY=0;entryDx=0;entryDy=0;exitX=1;exitY=0.5;exitDx=0;exitDy=0;" parent="1" target="PQxb19GPP4Mwg28GRMJL-1" edge="1">
          <mxGeometry width="50" height="50" relative="1" as="geometry">
            <mxPoint x="20" y="444.5" as="sourcePoint" />
            <mxPoint x="80" y="444.5" as="targetPoint" />
            <Array as="points">
              <mxPoint x="60" y="445" />
            </Array>
          </mxGeometry>
        </mxCell>
        <mxCell id="PQxb19GPP4Mwg28GRMJL-7" value="operation hour" style="ellipse;whiteSpace=wrap;html=1;" parent="1" vertex="1">
          <mxGeometry x="160" y="420" width="80" height="50" as="geometry" />
        </mxCell>
        <mxCell id="PQxb19GPP4Mwg28GRMJL-9" value="" style="endArrow=none;html=1;rounded=0;entryX=0.442;entryY=-0.033;entryDx=0;entryDy=0;exitX=0;exitY=0.5;exitDx=0;exitDy=0;entryPerimeter=0;" parent="1" source="PQxb19GPP4Mwg28GRMJL-7" edge="1">
          <mxGeometry width="50" height="50" relative="1" as="geometry">
            <mxPoint x="58.5" y="446.5" as="sourcePoint" />
            <mxPoint x="121.5" y="510" as="targetPoint" />
            <Array as="points">
              <mxPoint x="122" y="445" />
            </Array>
          </mxGeometry>
        </mxCell>
        <mxCell id="PQxb19GPP4Mwg28GRMJL-10" value="Staff" style="rounded=0;whiteSpace=wrap;html=1;" parent="1" vertex="1">
          <mxGeometry x="30" y="770" width="120" height="60" as="geometry" />
        </mxCell>
        <mxCell id="PQxb19GPP4Mwg28GRMJL-11" value="&lt;u&gt;staff_id&lt;/u&gt;" style="ellipse;whiteSpace=wrap;html=1;" parent="1" vertex="1">
          <mxGeometry x="-110" y="775" width="80" height="50" as="geometry" />
        </mxCell>
        <mxCell id="PQxb19GPP4Mwg28GRMJL-12" value="" style="endArrow=none;html=1;rounded=0;entryX=0;entryY=0.5;entryDx=0;entryDy=0;exitX=1;exitY=0.5;exitDx=0;exitDy=0;" parent="1" edge="1">
          <mxGeometry width="50" height="50" relative="1" as="geometry">
            <mxPoint x="-30" y="799.5" as="sourcePoint" />
            <mxPoint x="30" y="799.5" as="targetPoint" />
          </mxGeometry>
        </mxCell>
        <mxCell id="PQxb19GPP4Mwg28GRMJL-13" value="Workin" style="rhombus;whiteSpace=wrap;html=1;" parent="1" vertex="1">
          <mxGeometry x="35" y="640" width="110" height="60" as="geometry" />
        </mxCell>
        <mxCell id="PQxb19GPP4Mwg28GRMJL-14" value="" style="endArrow=none;html=1;rounded=0;exitX=0.5;exitY=0;exitDx=0;exitDy=0;" parent="1" source="PQxb19GPP4Mwg28GRMJL-13" edge="1">
          <mxGeometry width="50" height="50" relative="1" as="geometry">
            <mxPoint x="89.5" y="640" as="sourcePoint" />
            <mxPoint x="89.5" y="570" as="targetPoint" />
          </mxGeometry>
        </mxCell>
        <mxCell id="PQxb19GPP4Mwg28GRMJL-15" value="" style="endArrow=none;html=1;rounded=0;exitX=0.5;exitY=0;exitDx=0;exitDy=0;entryX=0.5;entryY=1;entryDx=0;entryDy=0;" parent="1" source="PQxb19GPP4Mwg28GRMJL-10" edge="1" target="PQxb19GPP4Mwg28GRMJL-13">
          <mxGeometry width="50" height="50" relative="1" as="geometry">
            <mxPoint x="90" y="760" as="sourcePoint" />
            <mxPoint x="89.5" y="710" as="targetPoint" />
          </mxGeometry>
        </mxCell>
        <mxCell id="PQxb19GPP4Mwg28GRMJL-16" value="mobile" style="ellipse;whiteSpace=wrap;html=1;" parent="1" vertex="1">
          <mxGeometry x="-110" y="680" width="80" height="50" as="geometry" />
        </mxCell>
        <mxCell id="PQxb19GPP4Mwg28GRMJL-17" value="" style="endArrow=none;html=1;rounded=0;exitX=0;exitY=0;exitDx=0;exitDy=0;" parent="1" source="PQxb19GPP4Mwg28GRMJL-10" edge="1">
          <mxGeometry width="50" height="50" relative="1" as="geometry">
            <mxPoint x="20" y="760" as="sourcePoint" />
            <mxPoint x="-30" y="710" as="targetPoint" />
          </mxGeometry>
        </mxCell>
        <mxCell id="PQxb19GPP4Mwg28GRMJL-18" value="salary" style="ellipse;whiteSpace=wrap;html=1;" parent="1" vertex="1">
          <mxGeometry x="-80" y="610" width="80" height="50" as="geometry" />
        </mxCell>
        <mxCell id="PQxb19GPP4Mwg28GRMJL-19" value="" style="endArrow=none;html=1;rounded=0;exitX=0.308;exitY=0;exitDx=0;exitDy=0;exitPerimeter=0;" parent="1" source="PQxb19GPP4Mwg28GRMJL-10" edge="1">
          <mxGeometry width="50" height="50" relative="1" as="geometry">
            <mxPoint x="20" y="720" as="sourcePoint" />
            <mxPoint x="-40" y="660" as="targetPoint" />
          </mxGeometry>
        </mxCell>
        <mxCell id="PQxb19GPP4Mwg28GRMJL-20" value="address" style="ellipse;whiteSpace=wrap;html=1;" parent="1" vertex="1">
          <mxGeometry x="-70" y="880" width="80" height="50" as="geometry" />
        </mxCell>
        <mxCell id="PQxb19GPP4Mwg28GRMJL-21" value="" style="endArrow=none;html=1;rounded=0;entryX=0;entryY=1;entryDx=0;entryDy=0;" parent="1" target="PQxb19GPP4Mwg28GRMJL-10" edge="1">
          <mxGeometry width="50" height="50" relative="1" as="geometry">
            <mxPoint x="-30" y="880" as="sourcePoint" />
            <mxPoint x="20" y="830" as="targetPoint" />
          </mxGeometry>
        </mxCell>
        <mxCell id="PQxb19GPP4Mwg28GRMJL-29" value="full name" style="ellipse;whiteSpace=wrap;html=1;" parent="1" vertex="1">
          <mxGeometry x="50" y="880" width="80" height="50" as="geometry" />
        </mxCell>
        <mxCell id="PQxb19GPP4Mwg28GRMJL-30" value="" style="endArrow=none;html=1;rounded=0;entryX=0.5;entryY=1;entryDx=0;entryDy=0;exitX=0.5;exitY=0;exitDx=0;exitDy=0;" parent="1" source="PQxb19GPP4Mwg28GRMJL-29" target="PQxb19GPP4Mwg28GRMJL-10" edge="1">
          <mxGeometry width="50" height="50" relative="1" as="geometry">
            <mxPoint x="150" y="880" as="sourcePoint" />
            <mxPoint x="200" y="830" as="targetPoint" />
          </mxGeometry>
        </mxCell>
        <mxCell id="PQxb19GPP4Mwg28GRMJL-37" value="Work as" style="rhombus;whiteSpace=wrap;html=1;" parent="1" vertex="1">
          <mxGeometry x="225" y="595" width="110" height="60" as="geometry" />
        </mxCell>
        <mxCell id="PQxb19GPP4Mwg28GRMJL-39" value="Nurse" style="rounded=0;whiteSpace=wrap;html=1;" parent="1" vertex="1">
          <mxGeometry x="800" y="600.5" width="100" height="50" as="geometry" />
        </mxCell>
        <mxCell id="PQxb19GPP4Mwg28GRMJL-40" value="" style="endArrow=none;html=1;rounded=0;entryX=0;entryY=0.5;entryDx=0;entryDy=0;exitX=1;exitY=0.5;exitDx=0;exitDy=0;" parent="1" source="PQxb19GPP4Mwg28GRMJL-37" target="PQxb19GPP4Mwg28GRMJL-39" edge="1">
          <mxGeometry width="50" height="50" relative="1" as="geometry">
            <mxPoint x="340" y="650" as="sourcePoint" />
            <mxPoint x="390" y="600" as="targetPoint" />
          </mxGeometry>
        </mxCell>
        <mxCell id="PQxb19GPP4Mwg28GRMJL-41" value="&lt;u&gt;nurse_id&lt;/u&gt;" style="ellipse;whiteSpace=wrap;html=1;" parent="1" vertex="1">
          <mxGeometry x="815" y="518" width="70" height="45" as="geometry" />
        </mxCell>
        <mxCell id="PQxb19GPP4Mwg28GRMJL-42" value="" style="endArrow=none;html=1;rounded=0;entryX=0.5;entryY=1;entryDx=0;entryDy=0;exitX=0.5;exitY=0;exitDx=0;exitDy=0;" parent="1" source="PQxb19GPP4Mwg28GRMJL-39" target="PQxb19GPP4Mwg28GRMJL-41" edge="1">
          <mxGeometry width="50" height="50" relative="1" as="geometry">
            <mxPoint x="710" y="580.5" as="sourcePoint" />
            <mxPoint x="760" y="530.5" as="targetPoint" />
          </mxGeometry>
        </mxCell>
        <mxCell id="PQxb19GPP4Mwg28GRMJL-43" value="WWCC" style="rounded=0;whiteSpace=wrap;html=1;" parent="1" vertex="1">
          <mxGeometry x="1080" y="600" width="100" height="50" as="geometry" />
        </mxCell>
        <mxCell id="PQxb19GPP4Mwg28GRMJL-45" value="&lt;u&gt;W_id&lt;/u&gt;" style="ellipse;whiteSpace=wrap;html=1;" parent="1" vertex="1">
          <mxGeometry x="1220" y="570" width="60" height="40" as="geometry" />
        </mxCell>
        <mxCell id="PQxb19GPP4Mwg28GRMJL-46" value="" style="endArrow=none;html=1;rounded=0;exitX=1;exitY=0;exitDx=0;exitDy=0;entryX=0;entryY=0.5;entryDx=0;entryDy=0;" parent="1" source="PQxb19GPP4Mwg28GRMJL-43" target="PQxb19GPP4Mwg28GRMJL-45" edge="1">
          <mxGeometry width="50" height="50" relative="1" as="geometry">
            <mxPoint x="1110" y="550" as="sourcePoint" />
            <mxPoint x="1160" y="500" as="targetPoint" />
          </mxGeometry>
        </mxCell>
        <mxCell id="PQxb19GPP4Mwg28GRMJL-47" value="expire date" style="ellipse;whiteSpace=wrap;html=1;" parent="1" vertex="1">
          <mxGeometry x="1220" y="630" width="60" height="40" as="geometry" />
        </mxCell>
        <mxCell id="PQxb19GPP4Mwg28GRMJL-48" value="" style="endArrow=none;html=1;rounded=0;exitX=1;exitY=1;exitDx=0;exitDy=0;entryX=0;entryY=0.5;entryDx=0;entryDy=0;" parent="1" source="PQxb19GPP4Mwg28GRMJL-43" target="PQxb19GPP4Mwg28GRMJL-47" edge="1">
          <mxGeometry width="50" height="50" relative="1" as="geometry">
            <mxPoint x="1040" y="840" as="sourcePoint" />
            <mxPoint x="1090" y="790" as="targetPoint" />
          </mxGeometry>
        </mxCell>
        <mxCell id="PQxb19GPP4Mwg28GRMJL-49" value="Doctor" style="rounded=0;whiteSpace=wrap;html=1;" parent="1" vertex="1">
          <mxGeometry x="280" y="820" width="100" height="50" as="geometry" />
        </mxCell>
        <mxCell id="PQxb19GPP4Mwg28GRMJL-50" value="&lt;u&gt;doctor_id&lt;/u&gt;" style="ellipse;whiteSpace=wrap;html=1;" parent="1" vertex="1">
          <mxGeometry x="295" y="726.25" width="70" height="45" as="geometry" />
        </mxCell>
        <mxCell id="PQxb19GPP4Mwg28GRMJL-53" value="Owns" style="rhombus;whiteSpace=wrap;html=1;" parent="1" vertex="1">
          <mxGeometry x="970" y="600" width="80" height="50" as="geometry" />
        </mxCell>
        <mxCell id="PQxb19GPP4Mwg28GRMJL-54" value="" style="endArrow=none;html=1;rounded=0;exitX=1;exitY=0.5;exitDx=0;exitDy=0;" parent="1" source="PQxb19GPP4Mwg28GRMJL-39" target="PQxb19GPP4Mwg28GRMJL-53" edge="1">
          <mxGeometry width="50" height="50" relative="1" as="geometry">
            <mxPoint x="550" y="730" as="sourcePoint" />
            <mxPoint x="600" y="680" as="targetPoint" />
          </mxGeometry>
        </mxCell>
        <mxCell id="PQxb19GPP4Mwg28GRMJL-55" value="" style="endArrow=none;html=1;rounded=0;exitX=1;exitY=0.5;exitDx=0;exitDy=0;entryX=0;entryY=0.5;entryDx=0;entryDy=0;" parent="1" source="PQxb19GPP4Mwg28GRMJL-53" target="PQxb19GPP4Mwg28GRMJL-43" edge="1">
          <mxGeometry width="50" height="50" relative="1" as="geometry">
            <mxPoint x="1070" y="710" as="sourcePoint" />
            <mxPoint x="1110" y="710" as="targetPoint" />
          </mxGeometry>
        </mxCell>
        <mxCell id="PQxb19GPP4Mwg28GRMJL-63" value="job" style="ellipse;whiteSpace=wrap;html=1;" parent="1" vertex="1">
          <mxGeometry x="167.5" y="885" width="65" height="40" as="geometry" />
        </mxCell>
        <mxCell id="PQxb19GPP4Mwg28GRMJL-65" value="training date" style="ellipse;whiteSpace=wrap;html=1;" parent="1" vertex="1">
          <mxGeometry x="410" y="1146.8700000000001" width="65" height="40" as="geometry" />
        </mxCell>
        <mxCell id="PQxb19GPP4Mwg28GRMJL-67" value="proficiency" style="ellipse;whiteSpace=wrap;html=1;" parent="1" vertex="1">
          <mxGeometry x="297.5" y="1173.75" width="65" height="40" as="geometry" />
        </mxCell>
        <mxCell id="Fp78hbJ8yBMcF1NIp28f-1" value="belong" style="rhombus;whiteSpace=wrap;html=1;" parent="1" vertex="1">
          <mxGeometry x="450" y="372.5" width="110" height="60" as="geometry" />
        </mxCell>
        <mxCell id="Fp78hbJ8yBMcF1NIp28f-2" value="" style="endArrow=none;html=1;rounded=0;exitX=1;exitY=0.5;exitDx=0;exitDy=0;entryX=0;entryY=0.5;entryDx=0;entryDy=0;" parent="1" source="PQxb19GPP4Mwg28GRMJL-1" target="Fp78hbJ8yBMcF1NIp28f-1" edge="1">
          <mxGeometry width="50" height="50" relative="1" as="geometry">
            <mxPoint x="210" y="550" as="sourcePoint" />
            <mxPoint x="260" y="500" as="targetPoint" />
            <Array as="points">
              <mxPoint x="270" y="535" />
              <mxPoint x="270" y="400" />
            </Array>
          </mxGeometry>
        </mxCell>
        <mxCell id="Fp78hbJ8yBMcF1NIp28f-3" value="Ward" style="rounded=0;whiteSpace=wrap;html=1;" parent="1" vertex="1">
          <mxGeometry x="620" y="375" width="100" height="50" as="geometry" />
        </mxCell>
        <mxCell id="Fp78hbJ8yBMcF1NIp28f-4" value="" style="endArrow=none;html=1;rounded=0;exitX=1;exitY=0.5;exitDx=0;exitDy=0;entryX=0;entryY=0.5;entryDx=0;entryDy=0;" parent="1" source="Fp78hbJ8yBMcF1NIp28f-1" target="Fp78hbJ8yBMcF1NIp28f-3" edge="1">
          <mxGeometry width="50" height="50" relative="1" as="geometry">
            <mxPoint x="520" y="300" as="sourcePoint" />
            <mxPoint x="570" y="250" as="targetPoint" />
          </mxGeometry>
        </mxCell>
        <mxCell id="Fp78hbJ8yBMcF1NIp28f-5" value="&lt;u&gt;ward_id&lt;/u&gt;" style="ellipse;whiteSpace=wrap;html=1;" parent="1" vertex="1">
          <mxGeometry x="635" y="290" width="70" height="45" as="geometry" />
        </mxCell>
        <mxCell id="Fp78hbJ8yBMcF1NIp28f-6" value="" style="endArrow=none;html=1;rounded=0;exitX=0.5;exitY=0;exitDx=0;exitDy=0;entryX=0.5;entryY=1;entryDx=0;entryDy=0;" parent="1" source="Fp78hbJ8yBMcF1NIp28f-3" target="Fp78hbJ8yBMcF1NIp28f-5" edge="1">
          <mxGeometry width="50" height="50" relative="1" as="geometry">
            <mxPoint x="470" y="330" as="sourcePoint" />
            <mxPoint x="520" y="280" as="targetPoint" />
          </mxGeometry>
        </mxCell>
        <mxCell id="Fp78hbJ8yBMcF1NIp28f-7" value="type" style="ellipse;whiteSpace=wrap;html=1;" parent="1" vertex="1">
          <mxGeometry x="640" y="490" width="60" height="40" as="geometry" />
        </mxCell>
        <mxCell id="Fp78hbJ8yBMcF1NIp28f-9" value="Bed" style="rounded=0;whiteSpace=wrap;html=1;" parent="1" vertex="1">
          <mxGeometry x="1141" y="375" width="100" height="50" as="geometry" />
        </mxCell>
        <mxCell id="Fp78hbJ8yBMcF1NIp28f-11" value="&lt;u&gt;bed_id&lt;/u&gt;" style="ellipse;whiteSpace=wrap;html=1;" parent="1" vertex="1">
          <mxGeometry x="1300" y="377.5" width="70" height="45" as="geometry" />
        </mxCell>
        <mxCell id="Fp78hbJ8yBMcF1NIp28f-13" value="" style="endArrow=none;html=1;rounded=0;exitX=1;exitY=0.5;exitDx=0;exitDy=0;entryX=0;entryY=0.5;entryDx=0;entryDy=0;" parent="1" source="Fp78hbJ8yBMcF1NIp28f-9" target="Fp78hbJ8yBMcF1NIp28f-11" edge="1">
          <mxGeometry width="50" height="50" relative="1" as="geometry">
            <mxPoint x="1205" y="317.5" as="sourcePoint" />
            <mxPoint x="1255" y="267.5" as="targetPoint" />
          </mxGeometry>
        </mxCell>
        <mxCell id="Fp78hbJ8yBMcF1NIp28f-14" value="dimension" style="ellipse;whiteSpace=wrap;html=1;" parent="1" vertex="1">
          <mxGeometry x="1255" y="297.5" width="60" height="40" as="geometry" />
        </mxCell>
        <mxCell id="Fp78hbJ8yBMcF1NIp28f-15" value="" style="endArrow=none;html=1;rounded=0;exitX=0.75;exitY=0;exitDx=0;exitDy=0;entryX=0;entryY=1;entryDx=0;entryDy=0;" parent="1" source="Fp78hbJ8yBMcF1NIp28f-9" target="Fp78hbJ8yBMcF1NIp28f-14" edge="1">
          <mxGeometry width="50" height="50" relative="1" as="geometry">
            <mxPoint x="1085" y="327.5" as="sourcePoint" />
            <mxPoint x="1135" y="277.5" as="targetPoint" />
          </mxGeometry>
        </mxCell>
        <mxCell id="Fp78hbJ8yBMcF1NIp28f-16" value="cost" style="ellipse;whiteSpace=wrap;html=1;" parent="1" vertex="1">
          <mxGeometry x="1160" y="277.5" width="60" height="40" as="geometry" />
        </mxCell>
        <mxCell id="Fp78hbJ8yBMcF1NIp28f-17" value="" style="endArrow=none;html=1;rounded=0;exitX=0.5;exitY=0;exitDx=0;exitDy=0;entryX=0.5;entryY=1;entryDx=0;entryDy=0;" parent="1" source="Fp78hbJ8yBMcF1NIp28f-9" target="Fp78hbJ8yBMcF1NIp28f-16" edge="1">
          <mxGeometry width="50" height="50" relative="1" as="geometry">
            <mxPoint x="1065" y="377.5" as="sourcePoint" />
            <mxPoint x="1115" y="327.5" as="targetPoint" />
          </mxGeometry>
        </mxCell>
        <mxCell id="Fp78hbJ8yBMcF1NIp28f-18" value="comfort level" style="ellipse;whiteSpace=wrap;html=1;" parent="1" vertex="1">
          <mxGeometry x="1060" y="297.5" width="60" height="40" as="geometry" />
        </mxCell>
        <mxCell id="Fp78hbJ8yBMcF1NIp28f-19" value="" style="endArrow=none;html=1;rounded=0;exitX=0.25;exitY=0;exitDx=0;exitDy=0;entryX=1;entryY=1;entryDx=0;entryDy=0;" parent="1" source="Fp78hbJ8yBMcF1NIp28f-9" target="Fp78hbJ8yBMcF1NIp28f-18" edge="1">
          <mxGeometry width="50" height="50" relative="1" as="geometry">
            <mxPoint x="995" y="417.5" as="sourcePoint" />
            <mxPoint x="1045" y="367.5" as="targetPoint" />
          </mxGeometry>
        </mxCell>
        <mxCell id="Fp78hbJ8yBMcF1NIp28f-20" value="mattress thickness" style="ellipse;whiteSpace=wrap;html=1;" parent="1" vertex="1">
          <mxGeometry x="1150" y="472.5" width="80" height="50" as="geometry" />
        </mxCell>
        <mxCell id="Fp78hbJ8yBMcF1NIp28f-22" value="Patient" style="rounded=0;whiteSpace=wrap;html=1;" parent="1" vertex="1">
          <mxGeometry x="-432.5" y="510" width="100" height="50" as="geometry" />
        </mxCell>
        <mxCell id="Fp78hbJ8yBMcF1NIp28f-25" value="&lt;u&gt;patient_id&lt;/u&gt;" style="ellipse;whiteSpace=wrap;html=1;" parent="1" vertex="1">
          <mxGeometry x="-547.5" y="465" width="70" height="45" as="geometry" />
        </mxCell>
        <mxCell id="Fp78hbJ8yBMcF1NIp28f-26" value="" style="endArrow=none;html=1;rounded=0;exitX=1;exitY=1;exitDx=0;exitDy=0;entryX=0;entryY=0.25;entryDx=0;entryDy=0;" parent="1" source="Fp78hbJ8yBMcF1NIp28f-25" target="Fp78hbJ8yBMcF1NIp28f-22" edge="1">
          <mxGeometry width="50" height="50" relative="1" as="geometry">
            <mxPoint x="-477.5" y="620" as="sourcePoint" />
            <mxPoint x="-427.5" y="570" as="targetPoint" />
          </mxGeometry>
        </mxCell>
        <mxCell id="Fp78hbJ8yBMcF1NIp28f-27" value="insurance number" style="ellipse;whiteSpace=wrap;html=1;" parent="1" vertex="1">
          <mxGeometry x="-552.5" y="530" width="65" height="40" as="geometry" />
        </mxCell>
        <mxCell id="Fp78hbJ8yBMcF1NIp28f-28" value="" style="endArrow=none;html=1;rounded=0;entryX=0;entryY=0.75;entryDx=0;entryDy=0;exitX=1;exitY=0.5;exitDx=0;exitDy=0;" parent="1" source="Fp78hbJ8yBMcF1NIp28f-27" target="Fp78hbJ8yBMcF1NIp28f-22" edge="1">
          <mxGeometry width="50" height="50" relative="1" as="geometry">
            <mxPoint x="-497.5" y="650" as="sourcePoint" />
            <mxPoint x="-447.5" y="600" as="targetPoint" />
          </mxGeometry>
        </mxCell>
        <mxCell id="Fp78hbJ8yBMcF1NIp28f-30" value="mobile" style="ellipse;whiteSpace=wrap;html=1;" parent="1" vertex="1">
          <mxGeometry x="-540" y="580" width="55" height="35" as="geometry" />
        </mxCell>
        <mxCell id="Fp78hbJ8yBMcF1NIp28f-31" value="" style="endArrow=none;html=1;rounded=0;exitX=1;exitY=0;exitDx=0;exitDy=0;entryX=0;entryY=1;entryDx=0;entryDy=0;" parent="1" source="Fp78hbJ8yBMcF1NIp28f-30" target="Fp78hbJ8yBMcF1NIp28f-22" edge="1">
          <mxGeometry width="50" height="50" relative="1" as="geometry">
            <mxPoint x="-407.5" y="640" as="sourcePoint" />
            <mxPoint x="-357.5" y="590" as="targetPoint" />
          </mxGeometry>
        </mxCell>
        <mxCell id="Fp78hbJ8yBMcF1NIp28f-32" value="DOB" style="ellipse;whiteSpace=wrap;html=1;" parent="1" vertex="1">
          <mxGeometry x="-515" y="620" width="55" height="35" as="geometry" />
        </mxCell>
        <mxCell id="Fp78hbJ8yBMcF1NIp28f-33" value="" style="endArrow=none;html=1;rounded=0;exitX=1;exitY=0;exitDx=0;exitDy=0;entryX=0.25;entryY=1;entryDx=0;entryDy=0;" parent="1" source="Fp78hbJ8yBMcF1NIp28f-32" target="Fp78hbJ8yBMcF1NIp28f-22" edge="1">
          <mxGeometry width="50" height="50" relative="1" as="geometry">
            <mxPoint x="-407.5" y="660" as="sourcePoint" />
            <mxPoint x="-357.5" y="610" as="targetPoint" />
          </mxGeometry>
        </mxCell>
        <mxCell id="Fp78hbJ8yBMcF1NIp28f-34" value="emergency contact name" style="ellipse;whiteSpace=wrap;html=1;" parent="1" vertex="1">
          <mxGeometry x="-472.5" y="650" width="80" height="50" as="geometry" />
        </mxCell>
        <mxCell id="Fp78hbJ8yBMcF1NIp28f-35" value="" style="endArrow=none;html=1;rounded=0;exitX=0.5;exitY=0;exitDx=0;exitDy=0;entryX=0.25;entryY=1;entryDx=0;entryDy=0;" parent="1" source="Fp78hbJ8yBMcF1NIp28f-34" target="Fp78hbJ8yBMcF1NIp28f-22" edge="1">
          <mxGeometry width="50" height="50" relative="1" as="geometry">
            <mxPoint x="-367.5" y="640" as="sourcePoint" />
            <mxPoint x="-317.5" y="590" as="targetPoint" />
          </mxGeometry>
        </mxCell>
        <mxCell id="Fp78hbJ8yBMcF1NIp28f-36" value="emergency contact number" style="ellipse;whiteSpace=wrap;html=1;" parent="1" vertex="1">
          <mxGeometry x="-377.5" y="650" width="80" height="50" as="geometry" />
        </mxCell>
        <mxCell id="Fp78hbJ8yBMcF1NIp28f-37" value="" style="endArrow=none;html=1;rounded=0;exitX=0.5;exitY=0;exitDx=0;exitDy=0;entryX=0.5;entryY=1;entryDx=0;entryDy=0;" parent="1" source="Fp78hbJ8yBMcF1NIp28f-36" target="Fp78hbJ8yBMcF1NIp28f-22" edge="1">
          <mxGeometry width="50" height="50" relative="1" as="geometry">
            <mxPoint x="-297.5" y="650" as="sourcePoint" />
            <mxPoint x="-247.5" y="600" as="targetPoint" />
          </mxGeometry>
        </mxCell>
        <mxCell id="Fp78hbJ8yBMcF1NIp28f-38" value="full name" style="ellipse;whiteSpace=wrap;html=1;" parent="1" vertex="1">
          <mxGeometry x="-417.5" y="710" width="55" height="35" as="geometry" />
        </mxCell>
        <mxCell id="Fp78hbJ8yBMcF1NIp28f-39" value="" style="endArrow=none;html=1;rounded=0;exitX=0.5;exitY=0;exitDx=0;exitDy=0;entryX=0.5;entryY=1;entryDx=0;entryDy=0;" parent="1" source="Fp78hbJ8yBMcF1NIp28f-38" target="Fp78hbJ8yBMcF1NIp28f-22" edge="1">
          <mxGeometry width="50" height="50" relative="1" as="geometry">
            <mxPoint x="-397.5" y="640" as="sourcePoint" />
            <mxPoint x="-347.5" y="590" as="targetPoint" />
          </mxGeometry>
        </mxCell>
        <mxCell id="Fp78hbJ8yBMcF1NIp28f-46" value="address" style="ellipse;whiteSpace=wrap;html=1;" parent="1" vertex="1">
          <mxGeometry x="-540" y="397.5" width="55" height="35" as="geometry" />
        </mxCell>
        <mxCell id="Fp78hbJ8yBMcF1NIp28f-54" value="email" style="ellipse;whiteSpace=wrap;html=1;" parent="1" vertex="1">
          <mxGeometry x="-297.5" y="430" width="55" height="35" as="geometry" />
        </mxCell>
        <mxCell id="Fp78hbJ8yBMcF1NIp28f-55" value="" style="endArrow=none;html=1;rounded=0;exitX=1;exitY=0;exitDx=0;exitDy=0;entryX=0;entryY=1;entryDx=0;entryDy=0;" parent="1" source="Fp78hbJ8yBMcF1NIp28f-22" target="Fp78hbJ8yBMcF1NIp28f-54" edge="1">
          <mxGeometry width="50" height="50" relative="1" as="geometry">
            <mxPoint x="-337.5" y="480" as="sourcePoint" />
            <mxPoint x="-287.5" y="472.5" as="targetPoint" />
          </mxGeometry>
        </mxCell>
        <mxCell id="Fp78hbJ8yBMcF1NIp28f-56" value="Pay" style="rhombus;whiteSpace=wrap;html=1;" parent="1" vertex="1">
          <mxGeometry x="-677.5" y="155" width="110" height="60" as="geometry" />
        </mxCell>
        <mxCell id="Fp78hbJ8yBMcF1NIp28f-58" value="&lt;u&gt;card number&lt;/u&gt;" style="ellipse;whiteSpace=wrap;html=1;" parent="1" vertex="1">
          <mxGeometry x="-417.5" y="37.82" width="70" height="45" as="geometry" />
        </mxCell>
        <mxCell id="Fp78hbJ8yBMcF1NIp28f-60" value="CVC" style="ellipse;whiteSpace=wrap;html=1;" parent="1" vertex="1">
          <mxGeometry x="-502.5" y="260" width="65" height="40" as="geometry" />
        </mxCell>
        <mxCell id="Fp78hbJ8yBMcF1NIp28f-62" value="holder name" style="ellipse;whiteSpace=wrap;html=1;" parent="1" vertex="1">
          <mxGeometry x="-327.5" y="260" width="65" height="40" as="geometry" />
        </mxCell>
        <mxCell id="Fp78hbJ8yBMcF1NIp28f-64" value="expire date" style="ellipse;whiteSpace=wrap;html=1;" parent="1" vertex="1">
          <mxGeometry x="-525" y="39.06999999999999" width="65" height="42.5" as="geometry" />
        </mxCell>
        <mxCell id="Fp78hbJ8yBMcF1NIp28f-66" value="Billing statement" style="rounded=0;whiteSpace=wrap;html=1;" parent="1" vertex="1">
          <mxGeometry x="-934" y="182.5" width="100" height="50" as="geometry" />
        </mxCell>
        <mxCell id="Fp78hbJ8yBMcF1NIp28f-67" value="&lt;u&gt;billing_id&lt;/u&gt;" style="ellipse;whiteSpace=wrap;html=1;" parent="1" vertex="1">
          <mxGeometry x="-1029.76" y="107.5" width="60" height="37.5" as="geometry" />
        </mxCell>
        <mxCell id="Fp78hbJ8yBMcF1NIp28f-68" value="" style="endArrow=none;html=1;rounded=0;entryX=0.5;entryY=1;entryDx=0;entryDy=0;exitX=0;exitY=0;exitDx=0;exitDy=0;" parent="1" source="Fp78hbJ8yBMcF1NIp28f-66" target="Fp78hbJ8yBMcF1NIp28f-67" edge="1">
          <mxGeometry width="50" height="50" relative="1" as="geometry">
            <mxPoint x="-1025" y="252.5" as="sourcePoint" />
            <mxPoint x="-975" y="202.5" as="targetPoint" />
          </mxGeometry>
        </mxCell>
        <mxCell id="Fp78hbJ8yBMcF1NIp28f-69" value="service" style="ellipse;whiteSpace=wrap;html=1;" parent="1" vertex="1">
          <mxGeometry x="-916.5" y="80" width="65" height="40" as="geometry" />
        </mxCell>
        <mxCell id="Fp78hbJ8yBMcF1NIp28f-70" value="" style="endArrow=none;html=1;rounded=0;exitX=0.5;exitY=0;exitDx=0;exitDy=0;entryX=0.5;entryY=1;entryDx=0;entryDy=0;" parent="1" source="Fp78hbJ8yBMcF1NIp28f-66" target="Fp78hbJ8yBMcF1NIp28f-69" edge="1">
          <mxGeometry width="50" height="50" relative="1" as="geometry">
            <mxPoint x="-835" y="162.5" as="sourcePoint" />
            <mxPoint x="-785" y="112.5" as="targetPoint" />
          </mxGeometry>
        </mxCell>
        <mxCell id="Fp78hbJ8yBMcF1NIp28f-71" value="total cost" style="ellipse;whiteSpace=wrap;html=1;" parent="1" vertex="1">
          <mxGeometry x="-805" y="107.5" width="65" height="40" as="geometry" />
        </mxCell>
        <mxCell id="Fp78hbJ8yBMcF1NIp28f-72" value="" style="endArrow=none;html=1;rounded=0;exitX=1;exitY=0;exitDx=0;exitDy=0;entryX=0;entryY=1;entryDx=0;entryDy=0;" parent="1" source="Fp78hbJ8yBMcF1NIp28f-66" target="Fp78hbJ8yBMcF1NIp28f-71" edge="1">
          <mxGeometry width="50" height="50" relative="1" as="geometry">
            <mxPoint x="-745" y="222.5" as="sourcePoint" />
            <mxPoint x="-695" y="172.5" as="targetPoint" />
          </mxGeometry>
        </mxCell>
        <mxCell id="Fp78hbJ8yBMcF1NIp28f-73" value="insurance cover" style="ellipse;whiteSpace=wrap;html=1;" parent="1" vertex="1">
          <mxGeometry x="-765" y="187.5" width="65" height="40" as="geometry" />
        </mxCell>
        <mxCell id="Fp78hbJ8yBMcF1NIp28f-74" value="" style="endArrow=none;html=1;rounded=0;exitX=1;exitY=0.5;exitDx=0;exitDy=0;entryX=0;entryY=0.5;entryDx=0;entryDy=0;" parent="1" source="Fp78hbJ8yBMcF1NIp28f-66" target="Fp78hbJ8yBMcF1NIp28f-73" edge="1">
          <mxGeometry width="50" height="50" relative="1" as="geometry">
            <mxPoint x="-815" y="332.5" as="sourcePoint" />
            <mxPoint x="-765" y="282.5" as="targetPoint" />
          </mxGeometry>
        </mxCell>
        <mxCell id="Fp78hbJ8yBMcF1NIp28f-75" value="remain balance" style="ellipse;whiteSpace=wrap;html=1;" parent="1" vertex="1">
          <mxGeometry x="-1060" y="257.5" width="65" height="40" as="geometry" />
        </mxCell>
        <mxCell id="Fp78hbJ8yBMcF1NIp28f-77" value="Generate" style="rhombus;whiteSpace=wrap;html=1;" parent="1" vertex="1">
          <mxGeometry x="-939" y="312.5" width="110" height="60" as="geometry" />
        </mxCell>
        <mxCell id="Fp78hbJ8yBMcF1NIp28f-79" value="" style="endArrow=none;html=1;rounded=0;exitX=1;exitY=0;exitDx=0;exitDy=0;entryX=0;entryY=1;entryDx=0;entryDy=0;" parent="1" source="Fp78hbJ8yBMcF1NIp28f-75" target="Fp78hbJ8yBMcF1NIp28f-66" edge="1">
          <mxGeometry width="50" height="50" relative="1" as="geometry">
            <mxPoint x="-999.7639215858421" y="263.2087507111005" as="sourcePoint" />
            <mxPoint x="-895" y="262.5" as="targetPoint" />
          </mxGeometry>
        </mxCell>
        <mxCell id="Fp78hbJ8yBMcF1NIp28f-80" value="" style="endArrow=none;html=1;rounded=0;exitX=0.5;exitY=0;exitDx=0;exitDy=0;entryX=0.5;entryY=1;entryDx=0;entryDy=0;" parent="1" source="Fp78hbJ8yBMcF1NIp28f-77" target="Fp78hbJ8yBMcF1NIp28f-66" edge="1">
          <mxGeometry width="50" height="50" relative="1" as="geometry">
            <mxPoint x="-775" y="332.5" as="sourcePoint" />
            <mxPoint x="-725" y="282.5" as="targetPoint" />
          </mxGeometry>
        </mxCell>
        <mxCell id="Fp78hbJ8yBMcF1NIp28f-81" value="invoice" style="rounded=0;whiteSpace=wrap;html=1;" parent="1" vertex="1">
          <mxGeometry x="-672.5" y="315" width="100" height="50" as="geometry" />
        </mxCell>
        <mxCell id="Fp78hbJ8yBMcF1NIp28f-83" value="&lt;u&gt;invoice_id&lt;/u&gt;" style="ellipse;whiteSpace=wrap;html=1;" parent="1" vertex="1">
          <mxGeometry x="-612.5" y="435" width="60" height="37.5" as="geometry" />
        </mxCell>
        <mxCell id="xk815vzm4cih1Hz6IBo3-2" value="" style="endArrow=none;html=1;rounded=0;exitX=1;exitY=0;exitDx=0;exitDy=0;entryX=0;entryY=0.5;entryDx=0;entryDy=0;" parent="1" source="PQxb19GPP4Mwg28GRMJL-10" target="PQxb19GPP4Mwg28GRMJL-37" edge="1">
          <mxGeometry width="50" height="50" relative="1" as="geometry">
            <mxPoint x="180" y="750" as="sourcePoint" />
            <mxPoint x="230" y="700" as="targetPoint" />
            <Array as="points">
              <mxPoint x="225" y="770" />
            </Array>
          </mxGeometry>
        </mxCell>
        <mxCell id="xk815vzm4cih1Hz6IBo3-3" value="" style="endArrow=none;html=1;rounded=0;entryX=0.5;entryY=1;entryDx=0;entryDy=0;exitX=0;exitY=0;exitDx=0;exitDy=0;" parent="1" source="PQxb19GPP4Mwg28GRMJL-49" target="PQxb19GPP4Mwg28GRMJL-37" edge="1">
          <mxGeometry width="50" height="50" relative="1" as="geometry">
            <mxPoint x="250" y="780" as="sourcePoint" />
            <mxPoint x="300" y="730" as="targetPoint" />
          </mxGeometry>
        </mxCell>
        <mxCell id="xk815vzm4cih1Hz6IBo3-7" value="Emergency medical records" style="rounded=0;whiteSpace=wrap;html=1;" parent="1" vertex="1">
          <mxGeometry x="-157.5" y="126.57" width="100" height="50" as="geometry" />
        </mxCell>
        <mxCell id="xk815vzm4cih1Hz6IBo3-8" value="&lt;u&gt;emergency_id&lt;/u&gt;" style="ellipse;whiteSpace=wrap;html=1;" parent="1" vertex="1">
          <mxGeometry x="-142.5" y="7.819999999999993" width="70" height="45" as="geometry" />
        </mxCell>
        <mxCell id="xk815vzm4cih1Hz6IBo3-9" value="reference number" style="ellipse;whiteSpace=wrap;html=1;" parent="1" vertex="1">
          <mxGeometry x="335" y="33.129999999999995" width="65" height="40" as="geometry" />
        </mxCell>
        <mxCell id="xk815vzm4cih1Hz6IBo3-10" value="date and time" style="ellipse;whiteSpace=wrap;html=1;" parent="1" vertex="1">
          <mxGeometry x="-27.5" y="39.06999999999999" width="65" height="40" as="geometry" />
        </mxCell>
        <mxCell id="It2FRa-c6f6FqHcenvX_-2" value="" style="endArrow=none;html=1;rounded=0;exitX=0.5;exitY=0;exitDx=0;exitDy=0;entryX=0.5;entryY=1;entryDx=0;entryDy=0;" edge="1" parent="1" source="PQxb19GPP4Mwg28GRMJL-49" target="PQxb19GPP4Mwg28GRMJL-50">
          <mxGeometry width="50" height="50" relative="1" as="geometry">
            <mxPoint x="430" y="830" as="sourcePoint" />
            <mxPoint x="480" y="780" as="targetPoint" />
          </mxGeometry>
        </mxCell>
        <mxCell id="It2FRa-c6f6FqHcenvX_-3" value="" style="endArrow=none;html=1;rounded=0;entryX=0.75;entryY=1;entryDx=0;entryDy=0;exitX=0;exitY=0;exitDx=0;exitDy=0;" edge="1" parent="1" source="PQxb19GPP4Mwg28GRMJL-63" target="PQxb19GPP4Mwg28GRMJL-10">
          <mxGeometry width="50" height="50" relative="1" as="geometry">
            <mxPoint x="160" y="880" as="sourcePoint" />
            <mxPoint x="210" y="830" as="targetPoint" />
          </mxGeometry>
        </mxCell>
        <mxCell id="It2FRa-c6f6FqHcenvX_-12" value="severity" style="ellipse;whiteSpace=wrap;html=1;" vertex="1" parent="1">
          <mxGeometry x="-287.5" y="134.07" width="55" height="35" as="geometry" />
        </mxCell>
        <mxCell id="It2FRa-c6f6FqHcenvX_-18" value="" style="endArrow=none;html=1;rounded=0;entryX=1;entryY=1;entryDx=0;entryDy=0;exitX=0.25;exitY=0;exitDx=0;exitDy=0;" edge="1" parent="1" source="Fp78hbJ8yBMcF1NIp28f-22" target="Fp78hbJ8yBMcF1NIp28f-46">
          <mxGeometry width="50" height="50" relative="1" as="geometry">
            <mxPoint x="-672.5" y="557.5" as="sourcePoint" />
            <mxPoint x="-622.5" y="507.5" as="targetPoint" />
          </mxGeometry>
        </mxCell>
        <mxCell id="It2FRa-c6f6FqHcenvX_-19" value="" style="endArrow=none;html=1;rounded=0;entryX=0.5;entryY=1;entryDx=0;entryDy=0;exitX=0.5;exitY=0;exitDx=0;exitDy=0;" edge="1" parent="1" source="Fp78hbJ8yBMcF1NIp28f-20" target="Fp78hbJ8yBMcF1NIp28f-9">
          <mxGeometry width="50" height="50" relative="1" as="geometry">
            <mxPoint x="960" y="452.5" as="sourcePoint" />
            <mxPoint x="1010" y="402.5" as="targetPoint" />
          </mxGeometry>
        </mxCell>
        <mxCell id="It2FRa-c6f6FqHcenvX_-20" value="have" style="rhombus;whiteSpace=wrap;html=1;" vertex="1" parent="1">
          <mxGeometry x="880" y="370" width="110" height="60" as="geometry" />
        </mxCell>
        <mxCell id="It2FRa-c6f6FqHcenvX_-21" value="" style="endArrow=none;html=1;rounded=0;entryX=0.5;entryY=1;entryDx=0;entryDy=0;exitX=0.5;exitY=0;exitDx=0;exitDy=0;" edge="1" parent="1" source="Fp78hbJ8yBMcF1NIp28f-7" target="Fp78hbJ8yBMcF1NIp28f-3">
          <mxGeometry width="50" height="50" relative="1" as="geometry">
            <mxPoint x="530" y="510" as="sourcePoint" />
            <mxPoint x="580" y="460" as="targetPoint" />
          </mxGeometry>
        </mxCell>
        <mxCell id="It2FRa-c6f6FqHcenvX_-22" value="" style="endArrow=none;html=1;rounded=0;exitX=1;exitY=0.5;exitDx=0;exitDy=0;entryX=0;entryY=0.5;entryDx=0;entryDy=0;" edge="1" parent="1" source="Fp78hbJ8yBMcF1NIp28f-3" target="It2FRa-c6f6FqHcenvX_-20">
          <mxGeometry width="50" height="50" relative="1" as="geometry">
            <mxPoint x="810" y="330" as="sourcePoint" />
            <mxPoint x="860" y="280" as="targetPoint" />
          </mxGeometry>
        </mxCell>
        <mxCell id="It2FRa-c6f6FqHcenvX_-23" value="" style="endArrow=none;html=1;rounded=0;entryX=0;entryY=0.5;entryDx=0;entryDy=0;exitX=1;exitY=0.5;exitDx=0;exitDy=0;" edge="1" parent="1" source="It2FRa-c6f6FqHcenvX_-20" target="Fp78hbJ8yBMcF1NIp28f-9">
          <mxGeometry width="50" height="50" relative="1" as="geometry">
            <mxPoint x="890" y="270" as="sourcePoint" />
            <mxPoint x="940" y="220" as="targetPoint" />
          </mxGeometry>
        </mxCell>
        <mxCell id="It2FRa-c6f6FqHcenvX_-24" value="Operating theatre" style="rounded=0;whiteSpace=wrap;html=1;" vertex="1" parent="1">
          <mxGeometry x="445" y="231.25" width="120" height="60" as="geometry" />
        </mxCell>
        <mxCell id="It2FRa-c6f6FqHcenvX_-25" value="&lt;u&gt;operating id&lt;/u&gt;" style="ellipse;whiteSpace=wrap;html=1;" vertex="1" parent="1">
          <mxGeometry x="465" y="119.07" width="80" height="50" as="geometry" />
        </mxCell>
        <mxCell id="It2FRa-c6f6FqHcenvX_-26" value="" style="endArrow=none;html=1;rounded=0;entryX=0.5;entryY=1;entryDx=0;entryDy=0;exitX=0.5;exitY=0;exitDx=0;exitDy=0;" edge="1" parent="1" source="It2FRa-c6f6FqHcenvX_-24" target="It2FRa-c6f6FqHcenvX_-25">
          <mxGeometry width="50" height="50" relative="1" as="geometry">
            <mxPoint x="305" y="230" as="sourcePoint" />
            <mxPoint x="355" y="180" as="targetPoint" />
          </mxGeometry>
        </mxCell>
        <mxCell id="It2FRa-c6f6FqHcenvX_-28" value="" style="endArrow=none;html=1;rounded=0;entryX=0.5;entryY=1;entryDx=0;entryDy=0;exitX=0.5;exitY=0;exitDx=0;exitDy=0;" edge="1" parent="1" source="Fp78hbJ8yBMcF1NIp28f-1" target="It2FRa-c6f6FqHcenvX_-24">
          <mxGeometry width="50" height="50" relative="1" as="geometry">
            <mxPoint x="120" y="340" as="sourcePoint" />
            <mxPoint x="170" y="290" as="targetPoint" />
          </mxGeometry>
        </mxCell>
        <mxCell id="It2FRa-c6f6FqHcenvX_-29" value="qualified" style="rhombus;whiteSpace=wrap;html=1;" vertex="1" parent="1">
          <mxGeometry x="275" y="930" width="110" height="60" as="geometry" />
        </mxCell>
        <mxCell id="It2FRa-c6f6FqHcenvX_-30" value="Speciality" style="rounded=0;whiteSpace=wrap;html=1;" vertex="1" parent="1">
          <mxGeometry x="280" y="1043.75" width="100" height="50" as="geometry" />
        </mxCell>
        <mxCell id="It2FRa-c6f6FqHcenvX_-31" value="" style="endArrow=none;html=1;rounded=0;entryX=0.5;entryY=1;entryDx=0;entryDy=0;exitX=0.5;exitY=0;exitDx=0;exitDy=0;" edge="1" parent="1" source="It2FRa-c6f6FqHcenvX_-30" target="It2FRa-c6f6FqHcenvX_-29">
          <mxGeometry width="50" height="50" relative="1" as="geometry">
            <mxPoint x="110" y="1080" as="sourcePoint" />
            <mxPoint x="160" y="1030" as="targetPoint" />
          </mxGeometry>
        </mxCell>
        <mxCell id="It2FRa-c6f6FqHcenvX_-32" value="&lt;u&gt;speciality_id&lt;/u&gt;" style="ellipse;whiteSpace=wrap;html=1;" vertex="1" parent="1">
          <mxGeometry x="130" y="1046.25" width="70" height="45" as="geometry" />
        </mxCell>
        <mxCell id="It2FRa-c6f6FqHcenvX_-33" value="" style="endArrow=none;html=1;rounded=0;entryX=0;entryY=0.5;entryDx=0;entryDy=0;exitX=1;exitY=0.5;exitDx=0;exitDy=0;" edge="1" parent="1" source="It2FRa-c6f6FqHcenvX_-32" target="It2FRa-c6f6FqHcenvX_-30">
          <mxGeometry width="50" height="50" relative="1" as="geometry">
            <mxPoint x="90" y="1020" as="sourcePoint" />
            <mxPoint x="140" y="970" as="targetPoint" />
          </mxGeometry>
        </mxCell>
        <mxCell id="It2FRa-c6f6FqHcenvX_-34" value="name" style="ellipse;whiteSpace=wrap;html=1;" vertex="1" parent="1">
          <mxGeometry x="200" y="1146.88" width="65" height="40" as="geometry" />
        </mxCell>
        <mxCell id="It2FRa-c6f6FqHcenvX_-35" value="" style="endArrow=none;html=1;rounded=0;entryX=0.5;entryY=1;entryDx=0;entryDy=0;exitX=0.5;exitY=0;exitDx=0;exitDy=0;" edge="1" parent="1" source="PQxb19GPP4Mwg28GRMJL-67" target="It2FRa-c6f6FqHcenvX_-30">
          <mxGeometry width="50" height="50" relative="1" as="geometry">
            <mxPoint x="250" y="1170" as="sourcePoint" />
            <mxPoint x="300" y="1120" as="targetPoint" />
          </mxGeometry>
        </mxCell>
        <mxCell id="It2FRa-c6f6FqHcenvX_-36" value="" style="endArrow=none;html=1;rounded=0;entryX=0;entryY=1;entryDx=0;entryDy=0;exitX=0.5;exitY=0;exitDx=0;exitDy=0;" edge="1" parent="1" source="It2FRa-c6f6FqHcenvX_-34" target="It2FRa-c6f6FqHcenvX_-30">
          <mxGeometry width="50" height="50" relative="1" as="geometry">
            <mxPoint x="-60" y="1130" as="sourcePoint" />
            <mxPoint x="-10" y="1080" as="targetPoint" />
          </mxGeometry>
        </mxCell>
        <mxCell id="It2FRa-c6f6FqHcenvX_-37" value="" style="endArrow=none;html=1;rounded=0;exitX=1;exitY=1;exitDx=0;exitDy=0;entryX=0;entryY=0;entryDx=0;entryDy=0;" edge="1" parent="1" source="It2FRa-c6f6FqHcenvX_-30" target="PQxb19GPP4Mwg28GRMJL-65">
          <mxGeometry width="50" height="50" relative="1" as="geometry">
            <mxPoint x="430" y="1090" as="sourcePoint" />
            <mxPoint x="480" y="1040" as="targetPoint" />
          </mxGeometry>
        </mxCell>
        <mxCell id="It2FRa-c6f6FqHcenvX_-38" value="" style="endArrow=none;html=1;rounded=0;exitX=0.5;exitY=0;exitDx=0;exitDy=0;entryX=0.5;entryY=1;entryDx=0;entryDy=0;" edge="1" parent="1" source="It2FRa-c6f6FqHcenvX_-29" target="PQxb19GPP4Mwg28GRMJL-49">
          <mxGeometry width="50" height="50" relative="1" as="geometry">
            <mxPoint x="450" y="920" as="sourcePoint" />
            <mxPoint x="500" y="870" as="targetPoint" />
          </mxGeometry>
        </mxCell>
        <mxCell id="It2FRa-c6f6FqHcenvX_-39" value="number of speciality" style="ellipse;whiteSpace=wrap;html=1;" vertex="1" parent="1">
          <mxGeometry x="450" y="825" width="65" height="40" as="geometry" />
        </mxCell>
        <mxCell id="It2FRa-c6f6FqHcenvX_-40" value="" style="endArrow=none;html=1;rounded=0;exitX=1;exitY=0.5;exitDx=0;exitDy=0;entryX=0;entryY=0.5;entryDx=0;entryDy=0;" edge="1" parent="1" source="PQxb19GPP4Mwg28GRMJL-49" target="It2FRa-c6f6FqHcenvX_-39">
          <mxGeometry width="50" height="50" relative="1" as="geometry">
            <mxPoint x="420" y="800" as="sourcePoint" />
            <mxPoint x="470" y="750" as="targetPoint" />
          </mxGeometry>
        </mxCell>
        <mxCell id="It2FRa-c6f6FqHcenvX_-47" value="" style="endArrow=none;html=1;rounded=0;exitX=1;exitY=0.5;exitDx=0;exitDy=0;entryX=0;entryY=0.5;entryDx=0;entryDy=0;" edge="1" parent="1" source="It2FRa-c6f6FqHcenvX_-12" target="xk815vzm4cih1Hz6IBo3-7">
          <mxGeometry width="50" height="50" relative="1" as="geometry">
            <mxPoint x="-207.5" y="137.57" as="sourcePoint" />
            <mxPoint x="-157.5" y="87.57" as="targetPoint" />
          </mxGeometry>
        </mxCell>
        <mxCell id="It2FRa-c6f6FqHcenvX_-49" value="Allocated" style="rhombus;whiteSpace=wrap;html=1;" vertex="1" parent="1">
          <mxGeometry x="-200" y="505" width="110" height="60" as="geometry" />
        </mxCell>
        <mxCell id="It2FRa-c6f6FqHcenvX_-51" value="" style="endArrow=none;html=1;rounded=0;exitX=1;exitY=0.5;exitDx=0;exitDy=0;entryX=0;entryY=0.5;entryDx=0;entryDy=0;" edge="1" parent="1" source="Fp78hbJ8yBMcF1NIp28f-22" target="It2FRa-c6f6FqHcenvX_-49">
          <mxGeometry width="50" height="50" relative="1" as="geometry">
            <mxPoint x="-260" y="630" as="sourcePoint" />
            <mxPoint x="-210" y="580" as="targetPoint" />
          </mxGeometry>
        </mxCell>
        <mxCell id="It2FRa-c6f6FqHcenvX_-52" value="" style="endArrow=none;html=1;rounded=0;exitX=1;exitY=0.5;exitDx=0;exitDy=0;entryX=0;entryY=0.5;entryDx=0;entryDy=0;" edge="1" parent="1" source="It2FRa-c6f6FqHcenvX_-49" target="PQxb19GPP4Mwg28GRMJL-1">
          <mxGeometry width="50" height="50" relative="1" as="geometry">
            <mxPoint x="-40" y="530" as="sourcePoint" />
            <mxPoint x="10" y="480" as="targetPoint" />
          </mxGeometry>
        </mxCell>
        <mxCell id="It2FRa-c6f6FqHcenvX_-53" value="" style="endArrow=none;html=1;rounded=0;entryX=0.5;entryY=1;entryDx=0;entryDy=0;exitX=0.5;exitY=0;exitDx=0;exitDy=0;" edge="1" parent="1" source="xk815vzm4cih1Hz6IBo3-7" target="xk815vzm4cih1Hz6IBo3-8">
          <mxGeometry width="50" height="50" relative="1" as="geometry">
            <mxPoint x="-152.5" y="119.07" as="sourcePoint" />
            <mxPoint x="-102.5" y="69.07" as="targetPoint" />
          </mxGeometry>
        </mxCell>
        <mxCell id="It2FRa-c6f6FqHcenvX_-54" value="nurse_id" style="ellipse;whiteSpace=wrap;html=1;" vertex="1" parent="1">
          <mxGeometry x="-255" y="39.06999999999999" width="65" height="40" as="geometry" />
        </mxCell>
        <mxCell id="It2FRa-c6f6FqHcenvX_-55" value="" style="endArrow=none;html=1;rounded=0;exitX=0.75;exitY=0;exitDx=0;exitDy=0;entryX=0;entryY=1;entryDx=0;entryDy=0;" edge="1" parent="1" source="xk815vzm4cih1Hz6IBo3-7" target="xk815vzm4cih1Hz6IBo3-10">
          <mxGeometry width="50" height="50" relative="1" as="geometry">
            <mxPoint x="-22.5" y="-0.9300000000000068" as="sourcePoint" />
            <mxPoint x="27.5" y="-50.93" as="targetPoint" />
          </mxGeometry>
        </mxCell>
        <mxCell id="It2FRa-c6f6FqHcenvX_-56" value="" style="endArrow=none;html=1;rounded=0;exitX=0.25;exitY=0;exitDx=0;exitDy=0;entryX=1;entryY=1;entryDx=0;entryDy=0;" edge="1" parent="1" source="xk815vzm4cih1Hz6IBo3-7" target="It2FRa-c6f6FqHcenvX_-54">
          <mxGeometry width="50" height="50" relative="1" as="geometry">
            <mxPoint x="-242.5" y="-0.9300000000000068" as="sourcePoint" />
            <mxPoint x="-192.5" y="-50.93" as="targetPoint" />
          </mxGeometry>
        </mxCell>
        <mxCell id="It2FRa-c6f6FqHcenvX_-57" value="doctor_id" style="ellipse;whiteSpace=wrap;html=1;" vertex="1" parent="1">
          <mxGeometry x="-255" y="242.19" width="65" height="40" as="geometry" />
        </mxCell>
        <mxCell id="It2FRa-c6f6FqHcenvX_-58" value="Recorded" style="rhombus;whiteSpace=wrap;html=1;" vertex="1" parent="1">
          <mxGeometry x="35" y="290" width="110" height="60" as="geometry" />
        </mxCell>
        <mxCell id="It2FRa-c6f6FqHcenvX_-59" value="" style="endArrow=none;html=1;rounded=0;exitX=1;exitY=0;exitDx=0;exitDy=0;entryX=0.25;entryY=1;entryDx=0;entryDy=0;" edge="1" parent="1" source="It2FRa-c6f6FqHcenvX_-57" target="xk815vzm4cih1Hz6IBo3-7">
          <mxGeometry width="50" height="50" relative="1" as="geometry">
            <mxPoint x="-132.5" y="272.19" as="sourcePoint" />
            <mxPoint x="-82.5" y="222.19" as="targetPoint" />
          </mxGeometry>
        </mxCell>
        <mxCell id="It2FRa-c6f6FqHcenvX_-60" value="Planned medical records" style="rounded=0;whiteSpace=wrap;html=1;" vertex="1" parent="1">
          <mxGeometry x="185" y="125.63" width="100" height="50" as="geometry" />
        </mxCell>
        <mxCell id="It2FRa-c6f6FqHcenvX_-61" value="&lt;u&gt;planned_id&lt;/u&gt;" style="ellipse;whiteSpace=wrap;html=1;" vertex="1" parent="1">
          <mxGeometry x="75" y="33.129999999999995" width="70" height="45" as="geometry" />
        </mxCell>
        <mxCell id="It2FRa-c6f6FqHcenvX_-62" value="referring health practitioner" style="ellipse;whiteSpace=wrap;html=1;" vertex="1" parent="1">
          <mxGeometry x="195" y="232.5" width="80" height="57.5" as="geometry" />
        </mxCell>
        <mxCell id="It2FRa-c6f6FqHcenvX_-63" value="" style="endArrow=none;html=1;rounded=0;exitX=0.25;exitY=0;exitDx=0;exitDy=0;entryX=1;entryY=1;entryDx=0;entryDy=0;" edge="1" parent="1" source="It2FRa-c6f6FqHcenvX_-60" target="It2FRa-c6f6FqHcenvX_-61">
          <mxGeometry width="50" height="50" relative="1" as="geometry">
            <mxPoint x="195" y="71.25" as="sourcePoint" />
            <mxPoint x="245" y="21.25" as="targetPoint" />
          </mxGeometry>
        </mxCell>
        <mxCell id="It2FRa-c6f6FqHcenvX_-64" value="" style="endArrow=none;html=1;rounded=0;exitX=0.75;exitY=0;exitDx=0;exitDy=0;entryX=0;entryY=1;entryDx=0;entryDy=0;" edge="1" parent="1" source="It2FRa-c6f6FqHcenvX_-60" target="xk815vzm4cih1Hz6IBo3-9">
          <mxGeometry width="50" height="50" relative="1" as="geometry">
            <mxPoint x="205" y="31.25" as="sourcePoint" />
            <mxPoint x="255" y="-18.75" as="targetPoint" />
          </mxGeometry>
        </mxCell>
        <mxCell id="It2FRa-c6f6FqHcenvX_-65" value="" style="endArrow=none;html=1;rounded=0;exitX=0.5;exitY=0;exitDx=0;exitDy=0;entryX=0.5;entryY=1;entryDx=0;entryDy=0;" edge="1" parent="1" source="It2FRa-c6f6FqHcenvX_-62" target="It2FRa-c6f6FqHcenvX_-60">
          <mxGeometry width="50" height="50" relative="1" as="geometry">
            <mxPoint x="335" y="201.25" as="sourcePoint" />
            <mxPoint x="385" y="151.25" as="targetPoint" />
          </mxGeometry>
        </mxCell>
        <mxCell id="It2FRa-c6f6FqHcenvX_-67" value="" style="endArrow=none;html=1;rounded=0;entryX=0.5;entryY=1;entryDx=0;entryDy=0;exitX=0;exitY=0.5;exitDx=0;exitDy=0;" edge="1" parent="1" source="It2FRa-c6f6FqHcenvX_-58" target="xk815vzm4cih1Hz6IBo3-7">
          <mxGeometry width="50" height="50" relative="1" as="geometry">
            <mxPoint x="-90" y="300" as="sourcePoint" />
            <mxPoint x="-40" y="250" as="targetPoint" />
            <Array as="points">
              <mxPoint x="-110" y="320" />
            </Array>
          </mxGeometry>
        </mxCell>
        <mxCell id="It2FRa-c6f6FqHcenvX_-68" value="" style="endArrow=none;html=1;rounded=0;entryX=0;entryY=0.5;entryDx=0;entryDy=0;exitX=0.5;exitY=0;exitDx=0;exitDy=0;" edge="1" parent="1" source="It2FRa-c6f6FqHcenvX_-58" target="It2FRa-c6f6FqHcenvX_-60">
          <mxGeometry width="50" height="50" relative="1" as="geometry">
            <mxPoint x="70" y="210" as="sourcePoint" />
            <mxPoint x="120" y="160" as="targetPoint" />
            <Array as="points">
              <mxPoint x="90" y="151" />
            </Array>
          </mxGeometry>
        </mxCell>
        <mxCell id="It2FRa-c6f6FqHcenvX_-69" value="" style="endArrow=none;html=1;rounded=0;entryX=0.5;entryY=1;entryDx=0;entryDy=0;exitX=0.5;exitY=0;exitDx=0;exitDy=0;" edge="1" parent="1" source="PQxb19GPP4Mwg28GRMJL-1" target="It2FRa-c6f6FqHcenvX_-58">
          <mxGeometry width="50" height="50" relative="1" as="geometry">
            <mxPoint x="-10" y="410" as="sourcePoint" />
            <mxPoint x="40" y="360" as="targetPoint" />
          </mxGeometry>
        </mxCell>
        <mxCell id="It2FRa-c6f6FqHcenvX_-73" value="Credit card" style="rounded=0;whiteSpace=wrap;html=1;" vertex="1" parent="1">
          <mxGeometry x="-432.5" y="160" width="100" height="50" as="geometry" />
        </mxCell>
        <mxCell id="It2FRa-c6f6FqHcenvX_-75" value="" style="endArrow=none;html=1;rounded=0;entryX=0.5;entryY=1;entryDx=0;entryDy=0;exitX=0.5;exitY=0;exitDx=0;exitDy=0;" edge="1" parent="1" source="It2FRa-c6f6FqHcenvX_-73" target="Fp78hbJ8yBMcF1NIp28f-58">
          <mxGeometry width="50" height="50" relative="1" as="geometry">
            <mxPoint x="-480" y="150" as="sourcePoint" />
            <mxPoint x="-430" y="100" as="targetPoint" />
          </mxGeometry>
        </mxCell>
        <mxCell id="It2FRa-c6f6FqHcenvX_-76" value="" style="endArrow=none;html=1;rounded=0;exitX=0.5;exitY=0;exitDx=0;exitDy=0;entryX=0;entryY=1;entryDx=0;entryDy=0;" edge="1" parent="1" source="Fp78hbJ8yBMcF1NIp28f-60" target="It2FRa-c6f6FqHcenvX_-73">
          <mxGeometry width="50" height="50" relative="1" as="geometry">
            <mxPoint x="-540" y="190" as="sourcePoint" />
            <mxPoint x="-490" y="140" as="targetPoint" />
          </mxGeometry>
        </mxCell>
        <mxCell id="It2FRa-c6f6FqHcenvX_-77" value="" style="endArrow=none;html=1;rounded=0;exitX=0.25;exitY=0;exitDx=0;exitDy=0;entryX=1;entryY=1;entryDx=0;entryDy=0;" edge="1" parent="1" source="It2FRa-c6f6FqHcenvX_-73" target="Fp78hbJ8yBMcF1NIp28f-64">
          <mxGeometry width="50" height="50" relative="1" as="geometry">
            <mxPoint x="-540" y="160" as="sourcePoint" />
            <mxPoint x="-490" y="110" as="targetPoint" />
          </mxGeometry>
        </mxCell>
        <mxCell id="It2FRa-c6f6FqHcenvX_-78" value="" style="endArrow=none;html=1;rounded=0;entryX=1;entryY=1;entryDx=0;entryDy=0;exitX=0;exitY=0;exitDx=0;exitDy=0;" edge="1" parent="1" source="Fp78hbJ8yBMcF1NIp28f-62" target="It2FRa-c6f6FqHcenvX_-73">
          <mxGeometry width="50" height="50" relative="1" as="geometry">
            <mxPoint x="-340" y="270" as="sourcePoint" />
            <mxPoint x="-290" y="220" as="targetPoint" />
          </mxGeometry>
        </mxCell>
        <mxCell id="It2FRa-c6f6FqHcenvX_-80" value="" style="endArrow=none;html=1;rounded=0;entryX=0.75;entryY=1;entryDx=0;entryDy=0;exitX=0.5;exitY=0;exitDx=0;exitDy=0;" edge="1" parent="1" source="Fp78hbJ8yBMcF1NIp28f-83" target="Fp78hbJ8yBMcF1NIp28f-81">
          <mxGeometry width="50" height="50" relative="1" as="geometry">
            <mxPoint x="-760" y="480" as="sourcePoint" />
            <mxPoint x="-710" y="430" as="targetPoint" />
          </mxGeometry>
        </mxCell>
        <mxCell id="It2FRa-c6f6FqHcenvX_-82" value="" style="endArrow=none;html=1;rounded=0;entryX=0;entryY=0.5;entryDx=0;entryDy=0;exitX=1;exitY=0.5;exitDx=0;exitDy=0;" edge="1" parent="1" source="Fp78hbJ8yBMcF1NIp28f-77" target="Fp78hbJ8yBMcF1NIp28f-81">
          <mxGeometry width="50" height="50" relative="1" as="geometry">
            <mxPoint x="-790" y="420" as="sourcePoint" />
            <mxPoint x="-740" y="370" as="targetPoint" />
          </mxGeometry>
        </mxCell>
        <mxCell id="It2FRa-c6f6FqHcenvX_-83" value="" style="endArrow=none;html=1;rounded=0;exitX=1;exitY=0.5;exitDx=0;exitDy=0;entryX=0;entryY=0.5;entryDx=0;entryDy=0;" edge="1" parent="1" source="Fp78hbJ8yBMcF1NIp28f-56" target="It2FRa-c6f6FqHcenvX_-73">
          <mxGeometry width="50" height="50" relative="1" as="geometry">
            <mxPoint x="-520" y="220" as="sourcePoint" />
            <mxPoint x="-470" y="170" as="targetPoint" />
          </mxGeometry>
        </mxCell>
        <mxCell id="It2FRa-c6f6FqHcenvX_-84" value="" style="endArrow=none;html=1;rounded=0;entryX=0.5;entryY=1;entryDx=0;entryDy=0;exitX=0.5;exitY=0;exitDx=0;exitDy=0;" edge="1" parent="1" source="Fp78hbJ8yBMcF1NIp28f-81" target="Fp78hbJ8yBMcF1NIp28f-56">
          <mxGeometry width="50" height="50" relative="1" as="geometry">
            <mxPoint x="-730" y="300" as="sourcePoint" />
            <mxPoint x="-680" y="250" as="targetPoint" />
          </mxGeometry>
        </mxCell>
        <mxCell id="It2FRa-c6f6FqHcenvX_-85" value="amount owning" style="ellipse;whiteSpace=wrap;html=1;" vertex="1" parent="1">
          <mxGeometry x="-720" y="432.5" width="65" height="40" as="geometry" />
        </mxCell>
        <mxCell id="It2FRa-c6f6FqHcenvX_-86" value="Receive" style="rhombus;whiteSpace=wrap;html=1;" vertex="1" parent="1">
          <mxGeometry x="-437.5" y="310" width="110" height="60" as="geometry" />
        </mxCell>
        <mxCell id="It2FRa-c6f6FqHcenvX_-87" value="" style="endArrow=none;html=1;rounded=0;exitX=1;exitY=0.5;exitDx=0;exitDy=0;entryX=0;entryY=0.5;entryDx=0;entryDy=0;" edge="1" parent="1" source="Fp78hbJ8yBMcF1NIp28f-81" target="It2FRa-c6f6FqHcenvX_-86">
          <mxGeometry width="50" height="50" relative="1" as="geometry">
            <mxPoint x="-520" y="370" as="sourcePoint" />
            <mxPoint x="-470" y="320" as="targetPoint" />
          </mxGeometry>
        </mxCell>
        <mxCell id="It2FRa-c6f6FqHcenvX_-88" value="" style="endArrow=none;html=1;rounded=0;entryX=0.5;entryY=1;entryDx=0;entryDy=0;exitX=0.5;exitY=0;exitDx=0;exitDy=0;" edge="1" parent="1" source="Fp78hbJ8yBMcF1NIp28f-22" target="It2FRa-c6f6FqHcenvX_-86">
          <mxGeometry width="50" height="50" relative="1" as="geometry">
            <mxPoint x="-400" y="460" as="sourcePoint" />
            <mxPoint x="-350" y="410" as="targetPoint" />
          </mxGeometry>
        </mxCell>
        <mxCell id="It2FRa-c6f6FqHcenvX_-89" value="" style="endArrow=none;html=1;rounded=0;entryX=0.25;entryY=1;entryDx=0;entryDy=0;exitX=0.5;exitY=0;exitDx=0;exitDy=0;" edge="1" parent="1" source="It2FRa-c6f6FqHcenvX_-85" target="Fp78hbJ8yBMcF1NIp28f-81">
          <mxGeometry width="50" height="50" relative="1" as="geometry">
            <mxPoint x="-780" y="410" as="sourcePoint" />
            <mxPoint x="-730" y="360" as="targetPoint" />
          </mxGeometry>
        </mxCell>
        <mxCell id="It2FRa-c6f6FqHcenvX_-90" value="discharged date" style="ellipse;whiteSpace=wrap;html=1;" vertex="1" parent="1">
          <mxGeometry x="-1140" y="145" width="65" height="40" as="geometry" />
        </mxCell>
        <mxCell id="It2FRa-c6f6FqHcenvX_-91" value="patient_id" style="ellipse;whiteSpace=wrap;html=1;" vertex="1" parent="1">
          <mxGeometry x="-1140" y="210" width="65" height="40" as="geometry" />
        </mxCell>
        <mxCell id="It2FRa-c6f6FqHcenvX_-92" value="" style="endArrow=none;html=1;rounded=0;exitX=1;exitY=0.5;exitDx=0;exitDy=0;entryX=0;entryY=0.25;entryDx=0;entryDy=0;" edge="1" parent="1" source="It2FRa-c6f6FqHcenvX_-90" target="Fp78hbJ8yBMcF1NIp28f-66">
          <mxGeometry width="50" height="50" relative="1" as="geometry">
            <mxPoint x="-1030" y="240" as="sourcePoint" />
            <mxPoint x="-980" y="190" as="targetPoint" />
          </mxGeometry>
        </mxCell>
        <mxCell id="It2FRa-c6f6FqHcenvX_-93" value="" style="endArrow=none;html=1;rounded=0;exitX=1;exitY=0.5;exitDx=0;exitDy=0;entryX=0;entryY=0.75;entryDx=0;entryDy=0;" edge="1" parent="1" source="It2FRa-c6f6FqHcenvX_-91" target="Fp78hbJ8yBMcF1NIp28f-66">
          <mxGeometry width="50" height="50" relative="1" as="geometry">
            <mxPoint x="-1030" y="250" as="sourcePoint" />
            <mxPoint x="-980" y="200" as="targetPoint" />
          </mxGeometry>
        </mxCell>
      </root>
    </mxGraphModel>
  </diagram>
</mxfile>
